<svg width="800" height="800" viewBox="0 0 800 800" fill="none" xmlns="http://www.w3.org/2000/svg">
<rect width="800" height="800" rx="60" fill="#F8FBF7"/>
<circle cx="604" cy="143" r="76" fill="#EAF6E0"/>
<ellipse cx="406" cy="708" rx="238" ry="36" fill="#DCE7D5"/>
<rect x="217" y="482" width="357" height="123" rx="24" fill="#203423"/>
<rect x="236" y="447" width="319" height="55" rx="18" fill="#2E4B32"/>
<rect x="283" y="246" width="225" height="214" rx="22" fill="#6BC241"/>
<rect x="298" y="263" width="194" height="177" rx="14" fill="#EFF8E6"/>
<path d="M315 399H473" stroke="#C7E6B4" stroke-width="10" stroke-linecap="round"/>
<path d="M330 352H458" stroke="#C7E6B4" stroke-width="10" stroke-linecap="round"/>
<path d="M330 307H425" stroke="#C7E6B4" stroke-width="10" stroke-linecap="round"/>
<rect x="554" y="330" width="85" height="188" rx="18" fill="#314B35"/>
<circle cx="597" cy="551" r="34" fill="#1F2C21"/>
<rect x="161" y="333" width="86" height="183" rx="18" fill="#314B35"/>
<circle cx="204" cy="551" r="34" fill="#1F2C21"/>
<rect x="146" y="282" width="119" height="41" rx="12" fill="#7ED151"/>
<rect x="538" y="282" width="119" height="41" rx="12" fill="#7ED151"/>
<path d="M133 222H267" stroke="#243B28" stroke-width="12" stroke-linecap="round"/>
<path d="M533 222H667" stroke="#243B28" stroke-width="12" stroke-linecap="round"/>
<path d="M200 222V280" stroke="#243B28" stroke-width="12" stroke-linecap="round"/>
<path d="M600 222V280" stroke="#243B28" stroke-width="12" stroke-linecap="round"/>
<path d="M388 132C423.333 115.333 499.4 101.2 521 172C494.333 187.5 427 204.7 371 186.5C315 168.3 359 140.583 388 132Z" fill="#BDE9A2"/>
</svg>
