<svg width="800" height="800" viewBox="0 0 800 800" fill="none" xmlns="http://www.w3.org/2000/svg">
<rect width="800" height="800" rx="60" fill="#F6FBF2"/>
<circle cx="611" cy="166" r="82" fill="#E6F7D9"/>
<circle cx="172" cy="184" r="56" fill="#EEF8E4"/>
<ellipse cx="405" cy="708" rx="235" ry="38" fill="#DCE8D3"/>
<rect x="176" y="305" width="300" height="246" rx="22" fill="#243B28"/>
<rect x="201" y="329" width="249" height="151" rx="12" fill="#2F4F34"/>
<rect x="219" y="349" width="213" height="111" rx="10" fill="#1A241D"/>
<rect x="238" y="515" width="175" height="20" rx="10" fill="#58745C"/>
<rect x="499" y="261" width="106" height="245" rx="18" fill="#68C63B"/>
<rect x="527" y="205" width="49" height="82" rx="12" fill="#7DD84E"/>
<rect x="530" y="283" width="8" height="182" rx="4" fill="#2C3F30"/>
<rect x="565" y="283" width="8" height="182" rx="4" fill="#2C3F30"/>
<path d="M516 207C516 188.222 531.222 173 550 173H553C571.778 173 587 188.222 587 207V219H516V207Z" fill="#1E2B20"/>
<rect x="135" y="402" width="84" height="150" rx="18" fill="#3A503D"/>
<rect x="151" y="368" width="51" height="45" rx="10" fill="#A4C98D"/>
<rect x="165" y="338" width="22" height="36" rx="9" fill="#243B28"/>
<path d="M115 258C151.667 234.667 227.6 203.7 237.2 262.5C247.34 324.625 163.843 300.572 115 258Z" fill="#68C63B"/>
<path d="M637 557C589.8 563.4 511.333 556.667 478 552.5L503 621.5L655 620L637 557Z" fill="#314435"/>
<circle cx="248" cy="387" r="8" fill="#68C63B"/>
<circle cx="274" cy="387" r="8" fill="#68C63B"/>
<circle cx="300" cy="387" r="8" fill="#68C63B"/>
<path d="M649 281C634.6 324.2 581.333 362 556.5 375.5C545.333 347.667 530.6 283.4 562 240.5C593.4 197.6 635.75 209.958 653 221L649 281Z" fill="#A4D98A"/>
<path d="M629 469L683 529" stroke="#243B28" stroke-width="14" stroke-linecap="round"/>
<path d="M683 469L629 529" stroke="#243B28" stroke-width="14" stroke-linecap="round"/>
</svg>
